<?xml version="1.0" encoding="UTF-8" standalone="no"?>
<!-- Created with Inkscape (http://www.inkscape.org/) -->

<svg
   width="512"
   height="512"
   viewBox="0 0 135.46666 135.46667"
   version="1.1"
   id="svg1"
   xmlns="http://www.w3.org/2000/svg"
   >
  <defs
     id="defs1" />
  <g
     id="layer1">
    <path
       id="path3"
       style="fill:currentColor;fill-opacity:1;stroke-width:0.235591"
       d="M 27.35101,1.5838683 17.887539,15.207079 16.98602,117.65436 l 13.069547,16.34817 81.119613,0.54533 9.91448,-13.62321 -3.8e-4,-74.111419 L 79.853826,46.540727 79.177801,2.1286437 Z m 64.934253,0.4467219 3.23e-4,28.8814668 27.490384,-1.089796 z M 73.316725,11.200765 58.641172,39.682631 73.694054,63.928144 58.902365,63.924867 47.360662,46.304632 41.465769,61.97963 22.861488,62.711827 38.871473,37.806245 24.750838,16.292257 41.603143,12.913229 48.880366,30.065187 57.048715,11.463044 Z m 20.77154,56.766477 c 5.775085,0.260336 13.746915,3.085946 15.322285,9.809237 0.80766,3.446844 -1.65286,8.299455 -4.50627,9.263914 -4.27237,1.444071 -7.502764,-9.302812 -11.717535,-7.629588 -3.000731,1.191262 -5.003486,6.710883 -4.056156,10.354013 1.816405,6.985323 11.647681,5.538925 15.773691,10.898792 2.83829,3.68706 6.24023,8.68784 5.40786,13.62342 -1.31864,7.81907 -8.52021,13.63763 -14.872146,15.80296 -7.63022,2.60109 -19.6669,3.52971 -23.434531,-4.90448 -2.334282,-5.2255 1.132457,-14.73236 5.858828,-16.34829 3.528978,-1.20654 6.113763,7.76085 9.012929,7.62945 2.899165,-0.13141 4.660027,-2.34778 4.957473,-4.90429 0.33091,-2.84412 -2.51708,-4.89663 -4.056157,-7.08426 -3.648477,-5.185907 -10.822228,-7.557016 -12.167556,-14.168384 -1.021508,-5.020007 1.172645,-10.895975 4.055692,-14.713451 3.538294,-4.685097 9.178126,-7.865414 14.421593,-7.629043 z m -45.517514,10.89866 -1.802515,28.336628 17.576015,0.54517 0.450416,17.98267 -31.996776,-0.54476 -1.352325,-43.594998 z" />
  </g>
</svg>
