<?xml version="1.0" encoding="UTF-8" standalone="no"?>
<!-- Created with Inkscape (http://www.inkscape.org/) -->

<svg
   width="512"
   height="512"
   viewBox="0 0 135.46667 135.46667"
   version="1.1"
   id="svg1"
   xmlns="http://www.w3.org/2000/svg"
   xmlns:svg="http://www.w3.org/2000/svg">
  <defs
     id="defs1" />
  <g
     id="layer1">
    <path
       id="rect1"
       style="opacity:1;fill:#ffc233;stroke-width:0.203628;fill-opacity:1"
       d="M 14.112834 29.448332 C 11.690193 29.448332 9.739974 30.795865 9.739974 32.469336 L 9.739974 122.99818 C 9.739974 124.67165 11.690193 126.01918 14.112834 126.01918 L 25.409819 126.01918 C 27.832459 126.01918 29.782678 124.67165 29.782678 122.99818 L 29.782678 77.54152 L 58.708561 77.54152 L 58.708561 123.30358 C 58.708561 124.97706 60.65878 126.32459 63.081421 126.32459 L 74.378406 126.32459 C 76.801047 126.32459 78.751265 124.97706 78.751265 123.30358 L 78.751265 32.774744 C 78.751265 31.101273 76.801047 29.753739 74.378406 29.753739 L 63.081421 29.753739 C 60.65878 29.753739 58.708561 31.101273 58.708561 32.774744 L 58.708561 60.413883 L 29.782678 60.413883 L 29.782678 32.469336 C 29.782678 30.795865 27.832459 29.448332 25.409819 29.448332 L 14.112834 29.448332 z M 94.748222 63.408533 C 92.325581 63.408533 90.375362 64.756066 90.375362 66.429537 L 90.375362 123.06742 C 90.375362 124.74089 92.325581 126.08843 94.748222 126.08843 L 107.13868 126.08843 C 109.56132 126.08843 111.51154 124.74089 111.51154 123.06742 L 111.51154 66.429537 C 111.51154 64.756066 109.56132 63.408533 107.13868 63.408533 L 94.748222 63.408533 z " />
    <path
       id="path2"
       style="opacity:1;fill:#238913;stroke-width:0.245004;fill-opacity:1"
       d="m 96.935168,8.5638184 1.081588,31.1459026 c -3.565234,1.040513 -6.001164,4.188574 -6.001184,7.755599 -1.54e-4,4.478054 3.793034,8.108363 8.472348,8.108549 4.67952,9e-5 8.47302,-3.6303 8.47287,-8.108549 4e-5,-3.468983 -2.30592,-6.553707 -5.7366,-7.67395 -0.56423,-2.723386 -0.45837,-7.540625 -0.45837,-7.540625 l 14.02963,-9.088351 13.1191,-7.310132 -17.27816,-3.986853 z" />
  </g>
</svg>
