<?xml version="1.0" encoding="UTF-8" standalone="no"?>
<!-- Created with Inkscape (http://www.inkscape.org/) -->

<svg
   width="512"
   height="512"
   viewBox="0 0 135.46666 135.46667"
   version="1.1"
   id="svg1"
   xmlns="http://www.w3.org/2000/svg"
   >
  <defs
     id="defs1" />
  <g
     id="layer1">
    <path
       id="rect1"
       style="opacity:1;fill:currentColor;fill-opacity:1;stroke-width:0.258099"
       d="m 5.0989136,0.51521403 c -2.5391604,0 -4.58369957,2.06505937 -4.58369957,4.63020837 V 130.39514 c 0,2.56515 2.04453917,4.63021 4.58369957,4.63021 H 130.69952 c 2.53916,0 4.5837,-2.06506 4.5837,-4.63021 V 5.1454224 c 0,-2.565149 -2.04454,-4.63020837 -4.5837,-4.63020837 z M 26.752372,16.51217 h 10.335804 c 4.848253,0 8.751404,3.563343 8.751404,7.989176 v 47.706133 c 0,4.425833 -3.903151,7.989176 -8.751404,7.989176 H 26.752372 c -4.848254,0 -8.751404,-3.563343 -8.751404,-7.989176 V 24.501346 c 0,-4.425833 3.90315,-7.989176 8.751404,-7.989176 z m 50.878548,0.591695 h 31.85646 c 4.66497,0 8.42067,3.792529 8.42067,8.503874 v 46.675704 c 0,4.711344 -3.7557,8.504391 -8.42067,8.504391 H 77.63092 c -4.664973,0 -8.420158,-3.793047 -8.420158,-8.504391 V 25.607739 c 0,-4.711345 3.755185,-8.503874 8.420158,-8.503874 z M 25.480098,99.357243 h 85.031492 c 4.2033,0 7.58714,3.642057 7.58714,8.166427 v 4.31809 c 0,4.52436 -3.38384,8.16643 -7.58714,8.16643 H 25.480098 c -4.2033,0 -7.587134,-3.64207 -7.587134,-8.16643 v -4.31809 c 0,-4.52437 3.383834,-8.166427 7.587134,-8.166427 z" />
  </g>
</svg>
